<?xml version="1.0" encoding="UTF-8" standalone="no"?><!DOCTYPE svg PUBLIC "-//W3C//DTD SVG 1.1//EN" "http://www.w3.org/Graphics/SVG/1.1/DTD/svg11.dtd"><svg width="100%" height="100%" viewBox="0 0 370 70" version="1.1" xmlns="http://www.w3.org/2000/svg" xmlns:xlink="http://www.w3.org/1999/xlink" xml:space="preserve" xmlns:serif="http://www.serif.com/" style="fill-rule:evenodd;clip-rule:evenodd;stroke-linejoin:round;stroke-miterlimit:1.41421;"><rect id="Artboard1" x="0" y="0" width="369.1" height="70" style="fill:none;"/><g><path id="Star-Icon" serif:id="Star Icon" d="M267.267,52.847c0.067,-0.186 0.237,-0.304 0.438,-0.304c0.202,0 0.372,0.118 0.438,0.304l1.778,4.951c0.065,0.181 0.229,0.298 0.426,0.303l5.34,0.134c0.2,0.005 0.367,0.126 0.429,0.312c0.062,0.186 0.001,0.38 -0.157,0.5l-4.246,3.203c-0.155,0.117 -0.217,0.303 -0.162,0.486l1.521,5.045c0.057,0.188 -0.01,0.38 -0.173,0.495c-0.163,0.115 -0.371,0.116 -0.536,0.005l-4.393,-2.976c-0.163,-0.11 -0.366,-0.11 -0.529,0l-4.393,2.976c-0.165,0.111 -0.373,0.11 -0.536,-0.005c-0.163,-0.115 -0.23,-0.307 -0.173,-0.495l1.521,-5.045c0.055,-0.183 -0.007,-0.369 -0.162,-0.486l-4.246,-3.203c-0.159,-0.12 -0.22,-0.314 -0.157,-0.5c0.062,-0.186 0.228,-0.307 0.429,-0.312l5.34,-0.134c0.197,-0.005 0.361,-0.122 0.426,-0.303l1.777,-4.951Z" style="fill:#ff9947;"/><g transform="matrix(1.89487,0,0,1.89487,-105.532,-78.8834)"><text x="55.575px" y="69px" style="font-family:'BreeSerif-Regular', 'Bree Serif';font-size:39.581px;fill:#f4f4f4;">T</text><text x="77.463px" y="69px" style="font-family:'BreeSerif-Regular', 'Bree Serif';font-size:29.938px;fill:#f4f4f4;">RADING</text><text x="191.564px" y="69px" style="font-family:'BreeSerif-Regular', 'Bree Serif';font-size:30.713px;fill:#f4f4f4;">P</text><text x="209.684px" y="69px" style="font-family:'BreeSerif-Regular', 'Bree Serif';font-size:23.231px;fill:#f4f4f4;">O<tspan x="224.803px " y="69px ">S</tspan>T</text></g><path id="Star-Icon1" serif:id="Star Icon" d="M355.229,52.847c0.067,-0.186 0.237,-0.304 0.438,-0.304c0.201,0 0.371,0.118 0.438,0.304l1.777,4.951c0.066,0.181 0.23,0.298 0.426,0.303l5.341,0.134c0.2,0.005 0.366,0.126 0.429,0.312c0.062,0.186 0.001,0.38 -0.158,0.5l-4.246,3.203c-0.154,0.117 -0.216,0.303 -0.161,0.486l1.521,5.045c0.057,0.188 -0.01,0.38 -0.173,0.495c-0.163,0.115 -0.372,0.116 -0.537,0.005l-4.393,-2.976c-0.162,-0.11 -0.366,-0.11 -0.529,0l-4.392,2.976c-0.165,0.111 -0.373,0.11 -0.537,-0.005c-0.163,-0.115 -0.23,-0.307 -0.173,-0.495l1.521,-5.045c0.056,-0.183 -0.006,-0.369 -0.161,-0.486l-4.246,-3.203c-0.159,-0.12 -0.22,-0.314 -0.158,-0.5c0.063,-0.186 0.229,-0.307 0.429,-0.312l5.341,-0.134c0.197,-0.005 0.36,-0.122 0.426,-0.303l1.777,-4.951Z" style="fill:#ff9947;"/><path id="Star-Icon2" serif:id="Star Icon" d="M311.248,52.847c0.067,-0.186 0.237,-0.304 0.438,-0.304c0.202,0 0.372,0.118 0.438,0.304l1.778,4.951c0.065,0.181 0.229,0.298 0.426,0.303l5.34,0.134c0.2,0.005 0.367,0.126 0.429,0.312c0.062,0.186 0.001,0.38 -0.157,0.5l-4.247,3.203c-0.154,0.117 -0.216,0.303 -0.161,0.486l1.521,5.045c0.057,0.188 -0.01,0.38 -0.173,0.495c-0.163,0.115 -0.371,0.116 -0.536,0.005l-4.393,-2.976c-0.163,-0.11 -0.367,-0.11 -0.529,0l-4.393,2.976c-0.165,0.111 -0.373,0.11 -0.536,-0.005c-0.163,-0.115 -0.231,-0.307 -0.174,-0.495l1.521,-5.045c0.056,-0.183 -0.006,-0.369 -0.161,-0.486l-4.246,-3.203c-0.159,-0.12 -0.22,-0.314 -0.158,-0.5c0.063,-0.186 0.229,-0.307 0.43,-0.312l5.34,-0.134c0.197,-0.005 0.361,-0.122 0.426,-0.303l1.777,-4.951Z" style="fill:#ff9947;"/><path id="Star-Icon3" serif:id="Star Icon" d="M289.258,52.847c0.067,-0.186 0.237,-0.304 0.438,-0.304c0.201,0 0.371,0.118 0.438,0.304l1.777,4.951c0.065,0.181 0.229,0.298 0.426,0.303l5.34,0.134c0.201,0.005 0.367,0.126 0.429,0.312c0.063,0.186 0.002,0.38 -0.157,0.5l-4.246,3.203c-0.155,0.117 -0.217,0.303 -0.161,0.486l1.521,5.045c0.057,0.188 -0.011,0.38 -0.174,0.495c-0.163,0.115 -0.371,0.116 -0.536,0.005l-4.393,-2.976c-0.162,-0.11 -0.366,-0.11 -0.529,0l-4.393,2.976c-0.165,0.111 -0.373,0.11 -0.536,-0.005c-0.163,-0.115 -0.23,-0.307 -0.173,-0.495l1.521,-5.045c0.055,-0.183 -0.007,-0.369 -0.161,-0.486l-4.246,-3.203c-0.159,-0.12 -0.22,-0.314 -0.158,-0.5c0.062,-0.186 0.229,-0.307 0.429,-0.312l5.34,-0.134c0.197,-0.005 0.361,-0.122 0.426,-0.303l1.778,-4.951Z" style="fill:#ff9947;"/><path id="Star-Icon4" serif:id="Star Icon" d="M333.239,52.847c0.066,-0.186 0.236,-0.304 0.438,-0.304c0.201,0 0.371,0.118 0.438,0.304l1.777,4.951c0.065,0.181 0.229,0.298 0.426,0.303l5.34,0.134c0.201,0.005 0.367,0.126 0.429,0.312c0.063,0.186 0.002,0.38 -0.157,0.5l-4.246,3.203c-0.155,0.117 -0.217,0.303 -0.162,0.486l1.522,5.045c0.056,0.188 -0.011,0.38 -0.174,0.495c-0.163,0.115 -0.371,0.116 -0.536,0.005l-4.393,-2.976c-0.163,-0.11 -0.366,-0.11 -0.529,0l-4.393,2.976c-0.165,0.111 -0.373,0.11 -0.536,-0.005c-0.163,-0.115 -0.23,-0.307 -0.173,-0.495l1.521,-5.045c0.055,-0.183 -0.007,-0.369 -0.162,-0.486l-4.246,-3.203c-0.158,-0.12 -0.219,-0.314 -0.157,-0.5c0.062,-0.186 0.229,-0.307 0.429,-0.312l5.34,-0.134c0.197,-0.005 0.361,-0.122 0.426,-0.303l1.778,-4.951Z" style="fill:#ff9947;"/></g></svg>